<svg xmlns="http://www.w3.org/2000/svg" viewBox="0 0 448 448"><defs><style>.cls-1{fill:#fff;}</style></defs><title>chrome_1</title><g id="Layer_2" data-name="Layer 2"><g id="Layer_1-2" data-name="Layer 1"><path class="cls-1" d="M156.8,223.93A67.2,67.2,0,1,0,224,156.75a67.38,67.38,0,0,0-67.2,67.18Z"/><path class="cls-1" d="M444.75,185.79s0,0,0,.05a206.63,206.63,0,0,0-7-28.84h-.11a202.16,202.16,0,0,1,7.07,29h0a203.5,203.5,0,0,0-7.07-29H282.24c19.05,17,31.36,40.17,31.36,67.05a86.55,86.55,0,0,1-12.31,44.73L199,446.45a2.44,2.44,0,0,1,0,.27V447h0v-.26A224,224,0,0,0,224,448c6.84,0,13.61-.39,20.3-1a223.73,223.73,0,0,0,29.78-4.74C373.68,419.52,448,330.4,448,223.94A225.25,225.25,0,0,0,444.75,185.79Z"/><path class="cls-1" d="M224,313.5c-33.6,0-61.6-17.91-77.29-44.79L44,91.05l-.14-.24A224,224,0,0,0,175.4,442.55l0-.05,77.69-134.6A84.13,84.13,0,0,1,224,313.5Z"/><path class="cls-1" d="M59.29,72.57l77.35,133.25A89.19,89.19,0,0,1,224,134H429.17a246.51,246.51,0,0,0-25.78-43.94l.12.08A245.26,245.26,0,0,1,429.17,134h.17a245.91,245.91,0,0,0-25.66-44,2.63,2.63,0,0,1-.35-.26A223.93,223.93,0,0,0,59.14,72.34l.14.24Z"/></g></g></svg>