<svg xmlns="http://www.w3.org/2000/svg" viewBox="0 0 480 480"><defs><style>.cls-1{fill:#fff;}</style></defs><title>safari_1</title><g id="Layer_2" data-name="Layer 2"><g id="Layer_1-2" data-name="Layer 1"><path class="cls-1" d="M240,0C107.45,0,0,107.45,0,240S107.45,480,240,480,480,372.55,480,240,372.55,0,240,0ZM477.74,219.21a3.12,3.12,0,0,1-2.84,3.38l-37.32,3.26h-.28a3.12,3.12,0,0,1-.27-6.23l37.32-3.26A3.13,3.13,0,0,1,477.74,219.21Zm.9,20.79a3.12,3.12,0,0,1-3.12,3.12H461.23a3.12,3.12,0,0,1,0-6.24h14.29A3.12,3.12,0,0,1,478.64,240Zm-3.59-41.43a3.12,3.12,0,0,1-2.53,3.61l-14.08,2.48a3.66,3.66,0,0,1-.57.05,3.12,3.12,0,0,1-.54-6.2L471.44,196A3.11,3.11,0,0,1,475.05,198.57Zm-4.35-20.71a3.13,3.13,0,0,1-1.83,4,3,3,0,0,1-.57.15l-36.18,9.7a3.2,3.2,0,0,1-.81.14,3.12,3.12,0,0,1-.81-6.14l36.19-9.7A3.12,3.12,0,0,1,470.7,177.86Zm-6.49-19.41a3.11,3.11,0,0,1-1.82,3.91L449,167.25a3,3,0,0,1-1.07.19,3.13,3.13,0,0,1-1.07-6.06l13.43-4.88A3.12,3.12,0,0,1,464.21,158.45Zm-7.93-19.28a3.13,3.13,0,0,1-1.51,4.15l-33.95,15.83a3.12,3.12,0,1,1-2.64-5.66l33.95-15.83A3.13,3.13,0,0,1,456.28,139.17Zm-9.57-18.49a3.13,3.13,0,0,1-1.15,4.27l-12.37,7.14a3.13,3.13,0,0,1-3.16-5.41l12.41-7.14A3.13,3.13,0,0,1,446.71,120.68Zm-11.24-17.49a3.11,3.11,0,0,1-.75,4.28L404,129a3.1,3.1,0,0,1-1.79.57,3.12,3.12,0,0,1-1.79-5.68l30.69-21.49A3.12,3.12,0,0,1,435.47,103.19Zm-17-17a3.13,3.13,0,0,1,4,4.79l-11,9.18a3.12,3.12,0,0,1-4-4.78Zm-38.62-17.7L389,57.58a3.12,3.12,0,1,1,5,3.77,2.11,2.11,0,0,1-.19.23l-9.18,11a3.12,3.12,0,0,1-4.78-4Zm-2.94-24a3.13,3.13,0,0,1,.77,4.35L356.16,79.56A3.13,3.13,0,0,1,351,76l21.49-30.68A3.13,3.13,0,0,1,376.88,44.52Zm-29,2.35v0l7.15-12.41a3.12,3.12,0,0,1,5.38,3.16L353.29,50a3.11,3.11,0,0,1-2.68,1.56,3,3,0,0,1-1.55-.42A3.11,3.11,0,0,1,347.9,46.87Zm-7.1-23.29a3.12,3.12,0,0,1,1.65,4.1l-.09.19-15.83,34a3.12,3.12,0,0,1-5.95-1.35,3.16,3.16,0,0,1,.29-1.29l15.84-33.95A3.12,3.12,0,0,1,340.8,23.58Zm-28.07,7.47,4.89-13.42a3.12,3.12,0,0,1,5.87,2.14L318.6,33.19a3.11,3.11,0,0,1-2.93,2,3.25,3.25,0,0,1-1.07-.18A3.13,3.13,0,0,1,312.73,31.05ZM288.25,47.9h0l9.69-36.19a3.12,3.12,0,0,1,6.15,1.08,5.44,5.44,0,0,1-.15.54L294.25,49.5a3.11,3.11,0,0,1-3,2.32,3.16,3.16,0,0,1-.81-.11A3.1,3.1,0,0,1,288.25,47.9ZM275.36,21.63l2.49-14.07a3.12,3.12,0,0,1,6.19.82c0,.09,0,.17-.05.26l-2.48,14.07a3.11,3.11,0,0,1-3.07,2.54,4.86,4.86,0,0,1-.54,0A3.14,3.14,0,0,1,275.36,21.63ZM254.15,42.44l3.29-37.33a3.12,3.12,0,1,1,6.22.54L260.39,43a3.12,3.12,0,0,1-3.12,2.85H257a3.12,3.12,0,0,1-2.84-3.38Zm-17.27-38a3.12,3.12,0,1,1,6.24,0V18.77a3.12,3.12,0,1,1-6.24,0Zm-17.83-2.3a3.14,3.14,0,0,1,3.51,2.69,2.46,2.46,0,0,1,0,.28l3.27,37.33A3.12,3.12,0,0,1,223,45.82h-.27A3.11,3.11,0,0,1,219.63,43L216.37,5.65A3.12,3.12,0,0,1,219.05,2.14ZM198.57,5a3.13,3.13,0,0,1,3.61,2.54l2.48,14.07a3.12,3.12,0,0,1-2.53,3.62,3.39,3.39,0,0,1-.55,0,3.12,3.12,0,0,1-3.07-2.58L196,8.6A3.13,3.13,0,0,1,198.57,5Zm-20,4.73a3.12,3.12,0,0,1,3.47,2l9.7,36.19a3.13,3.13,0,0,1-2.21,3.82h0a3,3,0,0,1-.79.11,3.12,3.12,0,0,1-3-2.31L176,13.32A3.12,3.12,0,0,1,178.57,9.71Zm-20.28,6.06a3.12,3.12,0,0,1,4,1.77.69.69,0,0,1,0,.13l4.89,13.42a3.13,3.13,0,0,1-1.87,4,3.43,3.43,0,0,1-1.06.14,3.13,3.13,0,0,1-2.94-2l-4.88-13.42A3.12,3.12,0,0,1,158.29,15.77Zm-19.14,8a3.13,3.13,0,0,1,4.15,1.51l15.83,34a3.13,3.13,0,0,1-1.53,4.15,3.08,3.08,0,0,1-1.3.29v0a3.13,3.13,0,0,1-2.86-1.81l-15.8-33.95A3.13,3.13,0,0,1,139.15,23.72Zm-18.49,9.6A3.13,3.13,0,0,1,125,34.44l7.14,12.37A3.12,3.12,0,0,1,131,51.07a3,3,0,0,1-1.51.46A3.12,3.12,0,0,1,126.73,50L119.54,37.6A3.13,3.13,0,0,1,120.66,33.32ZM102.72,44.47a3.13,3.13,0,0,1,4.4.36,2.91,2.91,0,0,1,.32.46L128.93,76a3.13,3.13,0,0,1-2.49,4.91,3.16,3.16,0,0,1-2.57-1.33L102.36,48.87A3.12,3.12,0,0,1,102.72,44.47ZM86.61,57.2a3.12,3.12,0,0,1,4.4.39l9.18,10.94a3.12,3.12,0,0,1-.38,4.4h0a3.11,3.11,0,0,1-2,.72,3.16,3.16,0,0,1-2.36-1.11l-9.22-11A3.12,3.12,0,0,1,86.61,57.2ZM71.4,71.26a3.13,3.13,0,0,1,4.27,0l26.49,26.49a3.12,3.12,0,0,1-4.41,4.42L71.26,75.67A3.12,3.12,0,0,1,71.4,71.26ZM57.18,86.61a3.13,3.13,0,0,1,4.4-.39l11,9.22a3.12,3.12,0,0,1-2,5.51v0a3.12,3.12,0,0,1-2-.73L57.58,91A3.13,3.13,0,0,1,57.18,86.61Zm-12.72,16.5a3.11,3.11,0,0,1,4.33-.83l.08,0,30.69,21.51a3.13,3.13,0,0,1-1.8,5.69A3.1,3.1,0,0,1,76,129L45.29,107.44A3.11,3.11,0,0,1,44.46,103.11ZM33.29,120.68a3.13,3.13,0,0,1,4.27-1.14l12.37,7.14a3.11,3.11,0,1,1-3,5.41L34.44,125A3.13,3.13,0,0,1,33.29,120.68Zm-9.57,18.47a3.13,3.13,0,0,1,4.15-1.51l34,15.8a3.15,3.15,0,0,1-2.64,5.71L25.23,143.3A3.13,3.13,0,0,1,23.72,139.15ZM15.6,158.44a3.11,3.11,0,0,1,3.92-2l.23.08,13.43,4.94a3.13,3.13,0,0,1-1.07,6,3,3,0,0,1-1.07-.19l-13.42-4.89A3.11,3.11,0,0,1,15.6,158.44Zm-6.43,20a3.13,3.13,0,0,1,3.61-2.54,5.44,5.44,0,0,1,.54.15l36.18,9.7a3.12,3.12,0,0,1-.8,6.14v0a3.16,3.16,0,0,1-.81-.11l-36.19-9.7A3.12,3.12,0,0,1,9.17,178.45ZM5,198.57A3.13,3.13,0,0,1,8.6,196l14.07,2.48a3.12,3.12,0,0,1-.54,6.2,3.29,3.29,0,0,1-.54-.05L7.52,202.18A3.13,3.13,0,0,1,5,198.57Zm.68,17.8L43,219.64a3.12,3.12,0,0,1-.27,6.23h-.27L5.12,222.59a3.12,3.12,0,1,1,.54-6.22ZM1.32,240a3.12,3.12,0,0,1,3.12-3.12H18.77a3.12,3.12,0,0,1,0,6.24H4.44A3.12,3.12,0,0,1,1.32,240Zm.92,20.55a3.12,3.12,0,0,1,2.87-3.13l37.33-3.26a3.12,3.12,0,1,1,.54,6.22L5.65,263.64H5.38A3.12,3.12,0,0,1,2.24,260.55ZM8.06,284a3.12,3.12,0,0,1-.54-6.19l14.07-2.49a3.12,3.12,0,1,1,1.08,6.15L8.6,284A2.47,2.47,0,0,1,8.06,284Zm4.45,20.06a3.12,3.12,0,0,1-.81-6.14l36.19-9.69a3.12,3.12,0,0,1,2.18,5.85,3,3,0,0,1-.57.15l-36.18,9.69A2.75,2.75,0,0,1,12.51,304.08Zm6.18,19.6a3.12,3.12,0,0,1-1.07-6.06L31,312.73a3.12,3.12,0,0,1,2.14,5.87l-13.43,4.89A3,3,0,0,1,18.69,323.68Zm7.86,19a3.12,3.12,0,0,1-1.32-6l34-15.83A3.12,3.12,0,1,1,62,326.39l-.19.09L27.87,342.37A3.17,3.17,0,0,1,26.55,342.66ZM36,360.88a3.12,3.12,0,0,1-1.6-5.82l12.37-7.15a3.12,3.12,0,1,1,3.12,5.41L37.6,360.44A3,3,0,0,1,36,360.88Zm11,17.33a3.12,3.12,0,0,1-1.79-5.68L76,351.05a3.12,3.12,0,0,1,3.59,5.11L48.87,377.65A3.11,3.11,0,0,1,47.08,378.21Zm14.51,15.57a3.12,3.12,0,0,1-4-4.78l10.94-9.18a3.12,3.12,0,1,1,4.23,4.59,2.11,2.11,0,0,1-.23.19Zm38.64,17.66-9.22,11a3.16,3.16,0,0,1-2.4,1.1,3.12,3.12,0,0,1-2.39-5.12h0l9.22-11a3.12,3.12,0,1,1,4.79,4Zm4.68,24.61a3.12,3.12,0,0,1-2.56-4.9h0l21.48-30.7A3.12,3.12,0,1,1,129,404l-21.52,30.7A3.11,3.11,0,0,1,104.91,436.05Zm27.36-3.19-.18.3L125,445.53a3.12,3.12,0,1,1-5.41-3.12L126.68,430a3.13,3.13,0,1,1,5.59,2.83Zm8.17,23.72a3,3,0,0,1-1.32-.3,3.11,3.11,0,0,1-1.52-4.13v0l15.83-33.95a3.12,3.12,0,1,1,5.66,2.64l-15.83,33.95A3.13,3.13,0,0,1,140.44,456.58ZM167.31,449l-4.89,13.42a3.15,3.15,0,0,1-6.1-1.06,3,3,0,0,1,.19-1.07l4.93-13.43a3.12,3.12,0,0,1,5.87,2.14Zm24.57-17.38a5.44,5.44,0,0,1-.15.54L182,468.3a3.11,3.11,0,1,1-6-1.61h0l9.7-36.19a3.12,3.12,0,0,1,6.15,1.08Zm12.78,26.84-2.48,14.07a3.14,3.14,0,0,1-3.07,2.58,3.41,3.41,0,0,1-.55-.05A3.12,3.12,0,0,1,196,471.4l2.48-14.07a3.12,3.12,0,0,1,6.15,1.09Zm17.88,16.5a3.12,3.12,0,0,1-3.1,2.83h-.28a3.12,3.12,0,0,1-2.84-3.38h0l3.27-37.32a3.12,3.12,0,1,1,6.22.54Zm20.58.6a3.12,3.12,0,0,1-6.24,0V461.23a3.12,3.12,0,0,1,6.24,0Zm17.68,2.22h-.28a3.11,3.11,0,0,1-3.1-2.85l-3.27-37.32a3.12,3.12,0,1,1,6.22-.55l3.27,37.32A3.13,3.13,0,0,1,260.8,477.74ZM85.34,399.07l-9.67,9.68a3.15,3.15,0,0,1-4.4,0l-.14.1.09-.14a3.08,3.08,0,0,1-.91-2.19,3.14,3.14,0,0,1,.92-2.22l9.82-9.82,128-185.44L394.61,81l9.72-9.72a3.12,3.12,0,0,1,4.39,0l.16-.11-.11.16a3.11,3.11,0,0,1,0,4.38L399,85.39,270.93,270.93Zm196.11,76h0a3.25,3.25,0,0,1-.54,0,3.15,3.15,0,0,1-3.08-2.59l-2.48-14a3.12,3.12,0,0,1,6.15-1.09L284,471.44A3.12,3.12,0,0,1,281.45,475.06Zm20.31-4.55a3.09,3.09,0,0,1-.8.11,3.12,3.12,0,0,1-3-2.32l-9.69-36.18a3.12,3.12,0,1,1,5.85-2.16,2.72,2.72,0,0,1,.15.54L304,466.69A3.12,3.12,0,0,1,301.76,470.51Zm19.86-6.26h0a3,3,0,0,1-1.07.19,3.13,3.13,0,0,1-2.93-2.06L312.73,449a3.12,3.12,0,1,1,5.87-2.14l4.89,13.43A3.12,3.12,0,0,1,321.62,464.25Zm19.21-7.92a3.07,3.07,0,0,1-1.29.29v0a3.12,3.12,0,0,1-2.83-1.81l-15.83-33.95a3.12,3.12,0,1,1,5.56-2.83l.09.19,15.83,34A3.13,3.13,0,0,1,340.83,456.33Zm18.48-9.64h0a3.17,3.17,0,0,1-1.53.39,3.12,3.12,0,0,1-2.7-1.56l-7.15-12.37a3.13,3.13,0,0,1,5.41-3.13l7.12,12.41A3.11,3.11,0,0,1,359.31,446.69Zm17.57-11.2a3.16,3.16,0,0,1-1.79.56,3.13,3.13,0,0,1-2.56-1.33L351,404a3.12,3.12,0,0,1,5.12-3.58l21.49,30.69A3.12,3.12,0,0,1,376.88,435.49Zm16.44-12.65a3,3,0,0,1-4.27-.41l-9.23-11a3.12,3.12,0,1,1,4.59-4.23,2.11,2.11,0,0,1,.19.23l9.18,11A3.13,3.13,0,0,1,393.32,422.84Zm15.44-14.1a3.14,3.14,0,0,1-2.22.92,3.11,3.11,0,0,1-2.21-.91l-26.49-26.49a3.13,3.13,0,0,1,4.42-4.42l26.49,26.49A3.12,3.12,0,0,1,408.76,408.74Zm14.06-15.34a3.11,3.11,0,0,1-4.38.38l-11-9.18a3.12,3.12,0,0,1,3.77-5,2.11,2.11,0,0,1,.23.19l11,9.18A3.12,3.12,0,0,1,422.82,393.4Zm12.67-16.53a3.15,3.15,0,0,1-2.58,1.34h0a3.12,3.12,0,0,1-1.77-.56l-30.7-21.49a3.12,3.12,0,0,1,3.5-5.17l.08.06,30.69,21.48A3.12,3.12,0,0,1,435.49,376.87Zm11.22-17.57a3.12,3.12,0,0,1-2.71,1.56l0,0a3,3,0,0,1-1.52-.44l-12.37-7.14a3.12,3.12,0,1,1,3.13-5.4L445.57,355A3.12,3.12,0,0,1,446.71,359.3Zm9.74-18.51a3.13,3.13,0,0,1-3,1.92v0a3.14,3.14,0,0,1-1.32-.29l-33.95-15.84a3.12,3.12,0,1,1,2.45-5.74l.19.09,33.95,15.83A3.12,3.12,0,0,1,456.45,340.79Zm7.82-19.14a3.13,3.13,0,0,1-2.9,2h-.05a3,3,0,0,1-1.07-.19l-13.43-4.89a3.12,3.12,0,0,1,2.14-5.87l13.48,4.89A3.13,3.13,0,0,1,464.27,321.65Zm6.27-19.88a3.11,3.11,0,0,1-3,2.34v0a2.78,2.78,0,0,1-.81-.11l-36.19-9.69a3.12,3.12,0,1,1,1-6.15,2.65,2.65,0,0,1,.57.15L468.3,298A3.12,3.12,0,0,1,470.54,301.77ZM475,281.46a3.11,3.11,0,0,1-3,2.56h0a2.29,2.29,0,0,1-.52,0l-14.07-2.48a3.12,3.12,0,0,1,1.11-6.15l14,2.49A3.11,3.11,0,0,1,475,281.46Zm-.32-17.79v0h-.28L437,260.38a3.12,3.12,0,0,1,.54-6.22l37.33,3.28a3.12,3.12,0,0,1-.27,6.23Z"/><polygon class="cls-1" points="365 115 365 115 217.1 217.1 115 365 115 365 115 365 262.89 262.89 365 115 365 115"/></g></g></svg>