<?xml version="1.0" encoding="utf-8"?>
<!-- Generator: Adobe Illustrator 22.0.0, SVG Export Plug-In . SVG Version: 6.00 Build 0)  -->
<svg version="1.1" id="Layer_1" xmlns="http://www.w3.org/2000/svg" xmlns:xlink="http://www.w3.org/1999/xlink" x="0px" y="0px"
	 viewBox="0 0 791 543" style="enable-background:new 0 0 791 543;" xml:space="preserve">
<style type="text/css">
	.st0{fill:none;stroke:#000000;}
	.st1{fill:#FFFFFF;stroke:#000000;}
	.st2{fill:#F0F0F0;}
	.st3{font-family:'Arial-BoldMT';}
	.st4{font-size:12px;}
	.st5{fill:#FFFFFF;}
	.st6{font-family:'ArialMT';}
</style>
<desc>{&quot;leftTopX&quot;: 6610, &quot;leftTopY&quot;: 6630, &quot;rightBottomX&quot;: 7439, &quot;rightBottomY&quot;: 7210}
	</desc>
<g transform="translate(0.5,0.5)">
	<g>
		<polyline class="st0" points="203.5,78.5 239.5,78.5 239.5,238.5 246.5,238.5 		"/>
		<g>
			<line class="st0" x1="239.5" y1="136.5" x2="233.5" y2="151.5"/>
			<line class="st0" x1="239.5" y1="136.5" x2="245.5" y2="151.5"/>
			<line class="st0" x1="233.5" y1="136.5" x2="245.5" y2="136.5"/>
		</g>
		<g>
			<line class="st0" x1="233.5" y1="132.5" x2="245.5" y2="132.5"/>
		</g>
	</g>
	<g>
		<polyline class="st0" points="336.5,76.5 326.5,76.5 326.5,161.5 244.5,161.5 		"/>
		<g>
			<line class="st0" x1="326.5" y1="136.5" x2="320.5" y2="151.5"/>
			<line class="st0" x1="326.5" y1="136.5" x2="332.5" y2="151.5"/>
			<g transform="translate(346.0,157.0)">
				<circle class="st1" cx="-19.5" cy="-20.5" r="3.5"/>
			</g>
		</g>
	</g>
	<g>
		<polyline class="st0" points="368.5,202.5 360.5,202.5 360.5,249.5 245.5,249.5 		"/>
		<g>
			<line class="st0" x1="348.5" y1="249.5" x2="333.5" y2="243.5"/>
			<line class="st0" x1="348.5" y1="249.5" x2="333.5" y2="255.5"/>
			<line class="st0" x1="348.5" y1="243.5" x2="348.5" y2="255.5"/>
		</g>
		<g>
			<line class="st0" x1="354.5" y1="227.5" x2="366.5" y2="227.5"/>
		</g>
	</g>
	<g>
		<polyline class="st0" points="299.5,271.5 299.5,328.5 402.5,328.5 402.5,308.5 		"/>
		<g>
			<line class="st0" x1="337.5" y1="328.5" x2="352.5" y2="322.5"/>
			<line class="st0" x1="337.5" y1="328.5" x2="352.5" y2="334.5"/>
			<line class="st0" x1="337.5" y1="322.5" x2="337.5" y2="334.5"/>
		</g>
		<g>
			<line class="st0" x1="293.5" y1="324.5" x2="305.5" y2="324.5"/>
		</g>
	</g>
	<g>
		<polyline class="st0" points="90.5,80.5 90.5,397.5 230.5,397.5 230.5,414.5 		"/>
		<g>
			<line class="st0" x1="194.5" y1="397.5" x2="209.5" y2="391.5"/>
			<line class="st0" x1="194.5" y1="397.5" x2="209.5" y2="403.5"/>
			<line class="st0" x1="194.5" y1="391.5" x2="194.5" y2="403.5"/>
		</g>
		<g>
			<line class="st0" x1="84.5" y1="137.5" x2="96.5" y2="137.5"/>
		</g>
	</g>
	<g>
		<polyline class="st0" points="495.5,433.5 328.5,433.5 328.5,502.5 		"/>
		<g>
			<line class="st0" x1="416.5" y1="427.5" x2="416.5" y2="439.5"/>
		</g>
		<g>
			<line class="st0" x1="423.5" y1="427.5" x2="423.5" y2="439.5"/>
		</g>
	</g>
	<g>
		<polyline class="st0" points="368.5,433.5 368.5,365.5 368.5,365.5 368.5,323.5 		"/>
		<g>
			<line class="st0" x1="368.5" y1="358.5" x2="362.5" y2="343.5"/>
			<line class="st0" x1="368.5" y1="358.5" x2="374.5" y2="343.5"/>
			<line class="st0" x1="362.5" y1="358.5" x2="374.5" y2="358.5"/>
		</g>
		<g>
			<line class="st0" x1="362.5" y1="365.5" x2="374.5" y2="365.5"/>
		</g>
	</g>
	<g>
		<line class="st0" x1="254.5" y1="424.5" x2="254.5" y2="291.5"/>
		<g>
			<line class="st0" x1="254.5" y1="324.5" x2="248.5" y2="309.5"/>
			<line class="st0" x1="254.5" y1="324.5" x2="260.5" y2="309.5"/>
			<g transform="translate(274.0,345.0)">
				<circle class="st1" cx="-19.5" cy="-20.5" r="3.5"/>
			</g>
		</g>
		<g>
			<g transform="translate(274.0,385.0)">
				<circle class="st1" cx="-19.5" cy="-20.5" r="3.5"/>
			</g>
		</g>
	</g>
	<g>
		<polyline class="st0" points="112.5,112.5 115.5,112.5 115.5,192.5 182.5,192.5 		"/>
		<g>
			<line class="st0" x1="124.5" y1="192.5" x2="139.5" y2="186.5"/>
			<line class="st0" x1="124.5" y1="192.5" x2="139.5" y2="198.5"/>
			<line class="st0" x1="124.5" y1="186.5" x2="124.5" y2="198.5"/>
		</g>
		<g>
			<line class="st0" x1="109.5" y1="137.5" x2="121.5" y2="137.5"/>
		</g>
	</g>
	<g>
		<polyline class="st0" points="94.5,25.5 245.5,25.5 245.5,79.5 		"/>
		<g>
			<line class="st0" x1="245.5" y1="29.5" x2="239.5" y2="44.5"/>
			<line class="st0" x1="245.5" y1="29.5" x2="251.5" y2="44.5"/>
			<line class="st0" x1="239.5" y1="29.5" x2="251.5" y2="29.5"/>
		</g>
		<g>
			<line class="st0" x1="169.5" y1="19.5" x2="169.5" y2="31.5"/>
		</g>
	</g>
	<g>
		<line class="st0" x1="82.5" y1="10.5" x2="407.5" y2="10.5"/>
		<g>
			<line class="st0" x1="309.5" y1="10.5" x2="324.5" y2="4.5"/>
			<line class="st0" x1="309.5" y1="10.5" x2="324.5" y2="16.5"/>
			<line class="st0" x1="309.5" y1="4.5" x2="309.5" y2="16.5"/>
		</g>
		<g>
			<line class="st0" x1="169.5" y1="4.5" x2="169.5" y2="16.5"/>
		</g>
	</g>
	<g>
		<polyline class="st0" points="28.5,483.5 176.5,483.5 176.5,483.5 353.5,483.5 		"/>
		<g>
			<line class="st0" x1="194.5" y1="483.5" x2="209.5" y2="477.5"/>
			<line class="st0" x1="194.5" y1="483.5" x2="209.5" y2="489.5"/>
			<g transform="translate(214.0,504.0)">
				<circle class="st1" cx="-19.5" cy="-20.5" r="3.5"/>
			</g>
		</g>
		<g>
			<g transform="translate(196.0,504.0)">
				<circle class="st1" cx="-19.5" cy="-20.5" r="3.5"/>
			</g>
		</g>
	</g>
	<g>
		<polyline class="st0" points="51.5,95.5 51.5,382.5 51.5,382.5 51.5,483.5 		"/>
		<g>
			<line class="st0" x1="51.5" y1="408.5" x2="45.5" y2="423.5"/>
			<line class="st0" x1="51.5" y1="408.5" x2="57.5" y2="423.5"/>
			<line class="st0" x1="45.5" y1="408.5" x2="57.5" y2="408.5"/>
		</g>
		<g>
			<line class="st0" x1="45.5" y1="137.5" x2="57.5" y2="137.5"/>
		</g>
	</g>
	<g>
		<polyline class="st0" points="654.5,296.5 654.5,398.5 596.5,398.5 		"/>
		<g>
			<line class="st0" x1="640.5" y1="398.5" x2="625.5" y2="392.5"/>
			<line class="st0" x1="640.5" y1="398.5" x2="625.5" y2="404.5"/>
			<g transform="translate(660.0,419.0)">
				<circle class="st1" cx="-19.5" cy="-20.5" r="3.5"/>
			</g>
		</g>
		<g>
			<g transform="translate(674.0,380.0)">
				<circle class="st1" cx="-19.5" cy="-20.5" r="3.5"/>
			</g>
		</g>
	</g>
	<g>
		<line class="st0" x1="590.5" y1="495.5" x2="694.5" y2="495.5"/>
		<g>
			<line class="st0" x1="650.5" y1="495.5" x2="665.5" y2="489.5"/>
			<line class="st0" x1="650.5" y1="495.5" x2="665.5" y2="501.5"/>
			<line class="st0" x1="650.5" y1="489.5" x2="650.5" y2="501.5"/>
		</g>
		<g>
			<line class="st0" x1="640.5" y1="489.5" x2="640.5" y2="501.5"/>
		</g>
	</g>
	<g transform="translate(372.0,173.0)">
		<g transform="translate(0.0,0.0)">
			<rect x="-19.5" y="-20.5" class="st2" width="120" height="20"/>
		</g>
		<g transform="translate(0.0,0.0)">
			<text transform="matrix(1 0 0 1 10.1523 -6.3094)" class="st3 st4">event_type</text>
		</g>
		<g transform="translate(0.0,20.0)">
			<rect x="-19.5" y="-20.5" class="st5" width="120" height="40"/>
			<g transform="translate(4.0,3.0)">
				<g transform="translate(0.0,0.0)">
					<text transform="matrix(1 0 0 1 -18.5 -9.3613)" class="st6 st4">id</text>
				</g>
				<g transform="translate(0.0,14.0)">
					<text transform="matrix(1 0 0 1 -18.5 -9.3613)" class="st6 st4">type</text>
				</g>
			</g>
			<g transform="translate(72.75,3.0)">
				<g transform="translate(0.0,0.0)">
					<text transform="matrix(1 0 0 1 -18.5 -9.3613)" class="st6 st4">int</text>
				</g>
				<g transform="translate(0.0,14.0)">
					<text transform="matrix(1 0 0 1 -18.5 -9.3613)" class="st6 st4">text</text>
				</g>
			</g>
			<g transform="translate(100.75,3.0)">
				<g transform="translate(0.0,0.0)">
					<text transform="matrix(1 0 0 1 -18.5 -9.3613)" class="st6 st4">PK</text>
				</g>
				<g transform="translate(0.0,14.0)">
				</g>
			</g>
		</g>
		<polyline class="st0" points="-19.5,-0.5 -19.5,-20.5 100.5,-20.5 100.5,-0.5 -19.5,-0.5 -19.5,39.5 100.5,39.5 100.5,-0.5 		"/>
	</g>
	<g transform="translate(194.0,65.0)">
		<g transform="translate(0.0,0.0)">
			<rect x="-19.5" y="-20.5" class="st2" width="137" height="20"/>
		</g>
		<g transform="translate(0.0,0.0)">
			<text transform="matrix(1 0 0 1 35 -6.3094)" class="st3 st4">room</text>
		</g>
		<g transform="translate(0.0,20.0)">
			<rect x="-19.5" y="-20.5" class="st5" width="137" height="53"/>
			<g transform="translate(4.0,3.0)">
				<g transform="translate(0.0,0.0)">
					<text transform="matrix(1 0 0 1 -18.5 -9.3613)" class="st6 st4">id</text>
				</g>
				<g transform="translate(0.0,14.0)">
					<text transform="matrix(1 0 0 1 -18.5 -9.3613)" class="st6 st4">title</text>
				</g>
				<g transform="translate(0.0,28.0)">
					<text transform="matrix(1 0 0 1 -18.5 -9.3613)" class="st6 st4">conference_i</text>
				</g>
			</g>
			<g transform="translate(89.75,3.0)">
				<g transform="translate(0.0,0.0)">
					<text transform="matrix(1 0 0 1 -18.5 -9.3613)" class="st6 st4">int</text>
				</g>
				<g transform="translate(0.0,14.0)">
					<text transform="matrix(1 0 0 1 -18.5 -9.3613)" class="st6 st4">text</text>
				</g>
				<g transform="translate(0.0,28.0)">
					<text transform="matrix(1 0 0 1 -18.5 -9.3613)" class="st6 st4">int</text>
				</g>
			</g>
			<g transform="translate(117.75,3.0)">
				<g transform="translate(0.0,0.0)">
					<text transform="matrix(1 0 0 1 -18.5 -9.3613)" class="st6 st4">PK</text>
				</g>
				<g transform="translate(0.0,14.0)">
				</g>
				<g transform="translate(0.0,28.0)">
					<text transform="matrix(1 0 0 1 -18.5 -9.3613)" class="st6 st4">FK</text>
				</g>
			</g>
		</g>
		<polyline class="st0" points="-19.5,-0.5 -19.5,-20.5 117.5,-20.5 117.5,-0.5 -19.5,-0.5 -19.5,52.5 117.5,52.5 117.5,-0.5 		"/>
	</g>
	<g transform="translate(344.0,20.0)">
		<g transform="translate(0.0,0.0)">
			<rect x="-19.5" y="-20.5" class="st2" width="150" height="20"/>
		</g>
		<g transform="translate(0.0,0.0)">
			<text transform="matrix(1 0 0 1 42.1562 -6.3094)" class="st3 st4">track</text>
		</g>
		<g transform="translate(0.0,20.0)">
			<rect x="-19.5" y="-20.5" class="st5" width="150" height="67"/>
			<g transform="translate(4.0,3.0)">
				<g transform="translate(0.0,0.0)">
					<text transform="matrix(1 0 0 1 -18.5 -9.3613)" class="st6 st4">id</text>
				</g>
				<g transform="translate(0.0,14.0)">
					<text transform="matrix(1 0 0 1 -18.5 -9.3613)" class="st6 st4">conference_id</text>
				</g>
				<g transform="translate(0.0,28.0)">
					<text transform="matrix(1 0 0 1 -18.5 -9.3613)" class="st6 st4">title</text>
				</g>
				<g transform="translate(0.0,42.0)">
					<text transform="matrix(1 0 0 1 -18.5 -9.3613)" class="st6 st4">description</text>
				</g>
			</g>
			<g transform="translate(102.75,3.0)">
				<g transform="translate(0.0,0.0)">
					<text transform="matrix(1 0 0 1 -18.5 -9.3613)" class="st6 st4">int</text>
				</g>
				<g transform="translate(0.0,14.0)">
					<text transform="matrix(1 0 0 1 -18.5 -9.3613)" class="st6 st4">int</text>
				</g>
				<g transform="translate(0.0,28.0)">
					<text transform="matrix(1 0 0 1 -18.5 -9.3613)" class="st6 st4">text</text>
				</g>
				<g transform="translate(0.0,42.0)">
					<text transform="matrix(1 0 0 1 -18.5 -9.3613)" class="st6 st4">text</text>
				</g>
			</g>
			<g transform="translate(130.75,3.0)">
				<g transform="translate(0.0,0.0)">
					<text transform="matrix(1 0 0 1 -18.5 -9.3613)" class="st6 st4">PK</text>
				</g>
				<g transform="translate(0.0,14.0)">
					<text transform="matrix(1 0 0 1 -18.5 -9.3613)" class="st6 st4">FK</text>
				</g>
				<g transform="translate(0.0,28.0)">
				</g>
				<g transform="translate(0.0,42.0)">
				</g>
			</g>
		</g>
		<polyline class="st0" points="-19.5,-0.5 -19.5,-20.5 130.5,-20.5 130.5,-0.5 -19.5,-0.5 -19.5,66.5 130.5,66.5 130.5,-0.5 		"/>
	</g>
	<g transform="translate(458.0,387.0)">
		<g transform="translate(0.0,0.0)">
			<rect x="-19.5" y="-20.5" class="st2" width="187" height="20"/>
		</g>
		<g transform="translate(0.0,0.0)">
			<text transform="matrix(1 0 0 1 62.3262 -6.3094)" class="st3 st4">user</text>
		</g>
		<g transform="translate(0.0,20.0)">
			<rect x="-19.5" y="-20.5" class="st5" width="187" height="153"/>
			<g transform="translate(4.0,3.0)">
				<g transform="translate(0.0,0.0)">
					<text transform="matrix(1 0 0 1 -18.5 -9.3613)" class="st6 st4">id</text>
				</g>
				<g transform="translate(0.0,14.0)">
					<text transform="matrix(1 0 0 1 -18.5 -9.3613)" class="st6 st4">name</text>
				</g>
				<g transform="translate(0.0,28.0)">
					<text transform="matrix(1 0 0 1 -18.5 -9.3613)" class="st6 st4">lastname</text>
				</g>
				<g transform="translate(0.0,42.0)">
					<text transform="matrix(1 0 0 1 -18.5 -9.3613)" class="st6 st4">company</text>
				</g>
				<g transform="translate(0.0,56.0)">
					<text transform="matrix(1 0 0 1 -18.5 -9.3613)" class="st6 st4">jobtitle</text>
				</g>
				<g transform="translate(0.0,70.0)">
					<text transform="matrix(1 0 0 1 -18.5 -9.3613)" class="st6 st4">email</text>
				</g>
				<g transform="translate(0.0,84.0)">
					<text transform="matrix(1 0 0 1 -18.5 -9.3613)" class="st6 st4">password_hash</text>
				</g>
				<g transform="translate(0.0,98.0)">
					<text transform="matrix(1 0 0 1 -18.5 -9.3613)" class="st6 st4">country_code</text>
				</g>
				<g transform="translate(0.0,112.0)">
					<text transform="matrix(1 0 0 1 -18.5 -9.3613)" class="st6 st4">phone</text>
				</g>
				<g transform="translate(0.0,126.0)">
					<text transform="matrix(1 0 0 1 -18.5 -9.3613)" class="st6 st4">ticket_type_id</text>
				</g>
			</g>
			<g transform="translate(100.0,3.0)">
				<g transform="translate(0.0,0.0)">
					<text transform="matrix(1 0 0 1 -18.5 -9.3613)" class="st6 st4">int</text>
				</g>
				<g transform="translate(0.0,14.0)">
					<text transform="matrix(1 0 0 1 -18.5 -9.3613)" class="st6 st4">text</text>
				</g>
				<g transform="translate(0.0,28.0)">
					<text transform="matrix(1 0 0 1 -18.5 -9.3613)" class="st6 st4">text</text>
				</g>
				<g transform="translate(0.0,42.0)">
					<text transform="matrix(1 0 0 1 -18.5 -9.3613)" class="st6 st4">int</text>
				</g>
				<g transform="translate(0.0,56.0)">
					<text transform="matrix(1 0 0 1 -18.5 -9.3613)" class="st6 st4">text</text>
				</g>
				<g transform="translate(0.0,70.0)">
					<text transform="matrix(1 0 0 1 -18.5 -9.3613)" class="st6 st4">text</text>
				</g>
				<g transform="translate(0.0,84.0)">
					<text transform="matrix(1 0 0 1 -18.5 -9.3613)" class="st6 st4">text</text>
				</g>
				<g transform="translate(0.0,98.0)">
					<text transform="matrix(1 0 0 1 -18.5 -9.3613)" class="st6 st4">int</text>
				</g>
				<g transform="translate(0.0,112.0)">
					<text transform="matrix(1 0 0 1 -18.5 -9.3613)" class="st6 st4">char(10)</text>
				</g>
				<g transform="translate(0.0,126.0)">
					<text transform="matrix(1 0 0 1 -18.5 -9.3613)" class="st6 st4">int</text>
				</g>
			</g>
			<g transform="translate(155.25,3.0)">
				<g transform="translate(0.0,0.0)">
					<text transform="matrix(1 0 0 1 -18.5 -9.3613)" class="st6 st4">PK</text>
				</g>
				<g transform="translate(0.0,14.0)">
					<text transform="matrix(1 0 0 1 -18.5 -9.3613)" class="st6 st4">N</text>
				</g>
				<g transform="translate(0.0,28.0)">
					<text transform="matrix(1 0 0 1 -18.5 -9.3613)" class="st6 st4">N</text>
				</g>
				<g transform="translate(0.0,42.0)">
					<text transform="matrix(1 0 0 1 -18.5 -9.3613)" class="st6 st4">N</text>
				</g>
				<g transform="translate(0.0,56.0)">
					<text transform="matrix(1 0 0 1 -18.5 -9.3613)" class="st6 st4">N</text>
				</g>
				<g transform="translate(0.0,70.0)">
				</g>
				<g transform="translate(0.0,84.0)">
				</g>
				<g transform="translate(0.0,98.0)">
					<text transform="matrix(1 0 0 1 -18.5 -9.3613)" class="st6 st4">N</text>
				</g>
				<g transform="translate(0.0,112.0)">
					<text transform="matrix(1 0 0 1 -18.5 -9.3613)" class="st6 st4">N</text>
				</g>
				<g transform="translate(0.0,126.0)">
					<text transform="matrix(1 0 0 1 -18.5 -9.3613)" class="st6 st4">N FK</text>
				</g>
			</g>
		</g>
		<polyline class="st0" points="-19.5,-0.5 -19.5,-20.5 167.5,-20.5 167.5,-0.5 -19.5,-0.5 -19.5,152.5 167.5,152.5 167.5,-0.5 		
			"/>
	</g>
	<g transform="translate(20.0,444.0)">
		<g transform="translate(0.0,0.0)">
			<rect x="-19.5" y="-20.5" class="st2" width="164" height="20"/>
		</g>
		<g transform="translate(0.0,0.0)">
			<text transform="matrix(1 0 0 1 39.8311 -6.3094)" class="st3 st4">sponsor</text>
		</g>
		<g transform="translate(0.0,20.0)">
			<rect x="-19.5" y="-20.5" class="st5" width="164" height="96"/>
			<g transform="translate(4.0,3.0)">
				<g transform="translate(0.0,0.0)">
					<text transform="matrix(1 0 0 1 -18.5 -9.3613)" class="st6 st4">id</text>
				</g>
				<g transform="translate(0.0,14.0)">
					<text transform="matrix(1 0 0 1 -18.5 -9.3613)" class="st6 st4">general</text>
				</g>
				<g transform="translate(0.0,28.0)">
					<text transform="matrix(1 0 0 1 -18.5 -9.3613)" class="st6 st4">title</text>
				</g>
				<g transform="translate(0.0,42.0)">
					<text transform="matrix(1 0 0 1 -18.5 -9.3613)" class="st6 st4">logo</text>
				</g>
				<g transform="translate(0.0,56.0)">
					<text transform="matrix(1 0 0 1 -18.5 -9.3613)" class="st6 st4">about</text>
				</g>
				<g transform="translate(0.0,70.0)">
					<text transform="matrix(1 0 0 1 -18.5 -9.3613)" class="st6 st4">conference_id</text>
				</g>
			</g>
			<g transform="translate(92.75,3.0)">
				<g transform="translate(0.0,0.0)">
					<text transform="matrix(1 0 0 1 -18.5 -9.3613)" class="st6 st4">int</text>
				</g>
				<g transform="translate(0.0,14.0)">
					<text transform="matrix(1 0 0 1 -18.5 -9.3613)" class="st6 st4">boolean</text>
				</g>
				<g transform="translate(0.0,28.0)">
					<text transform="matrix(1 0 0 1 -18.5 -9.3613)" class="st6 st4">text</text>
				</g>
				<g transform="translate(0.0,42.0)">
					<text transform="matrix(1 0 0 1 -18.5 -9.3613)" class="st6 st4">bytea</text>
				</g>
				<g transform="translate(0.0,56.0)">
					<text transform="matrix(1 0 0 1 -18.5 -9.3613)" class="st6 st4">text</text>
				</g>
				<g transform="translate(0.0,70.0)">
					<text transform="matrix(1 0 0 1 -18.5 -9.3613)" class="st6 st4">int</text>
				</g>
			</g>
			<g transform="translate(144.75,3.0)">
				<g transform="translate(0.0,0.0)">
					<text transform="matrix(1 0 0 1 -18.5 -9.3613)" class="st6 st4">PK</text>
				</g>
				<g transform="translate(0.0,14.0)">
				</g>
				<g transform="translate(0.0,28.0)">
				</g>
				<g transform="translate(0.0,42.0)">
				</g>
				<g transform="translate(0.0,56.0)">
				</g>
				<g transform="translate(0.0,70.0)">
					<text transform="matrix(1 0 0 1 -18.5 -9.3613)" class="st6 st4">FK</text>
				</g>
			</g>
		</g>
		<polyline class="st0" points="-19.5,-0.5 -19.5,-20.5 144.5,-20.5 144.5,-0.5 -19.5,-0.5 -19.5,95.5 144.5,95.5 144.5,-0.5 		"/>
	</g>
	<g transform="translate(159.0,172.0)">
		<g transform="translate(0.0,0.0)">
			<rect x="-19.5" y="-20.5" class="st2" width="194" height="20"/>
		</g>
		<g transform="translate(0.0,0.0)">
			<text transform="matrix(1 0 0 1 62.8262 -6.3094)" class="st3 st4">event</text>
		</g>
		<g transform="translate(0.0,20.0)">
			<rect x="-19.5" y="-20.5" class="st5" width="194" height="138"/>
			<g transform="translate(4.0,3.0)">
				<g transform="translate(0.0,0.0)">
					<text transform="matrix(1 0 0 1 -18.5 -9.3613)" class="st6 st4">id</text>
				</g>
				<g transform="translate(0.0,14.0)">
					<text transform="matrix(1 0 0 1 -18.5 -9.3613)" class="st6 st4">title</text>
				</g>
				<g transform="translate(0.0,28.0)">
					<text transform="matrix(1 0 0 1 -18.5 -9.3613)" class="st6 st4">description</text>
				</g>
				<g transform="translate(0.0,42.0)">
					<text transform="matrix(1 0 0 1 -18.5 -9.3613)" class="st6 st4">event_type_id</text>
				</g>
				<g transform="translate(0.0,56.0)">
					<text transform="matrix(1 0 0 1 -18.5 -9.3613)" class="st6 st4">track_id</text>
				</g>
				<g transform="translate(0.0,70.0)">
					<text transform="matrix(1 0 0 1 -18.5 -9.3613)" class="st6 st4">room_id</text>
				</g>
				<g transform="translate(0.0,84.0)">
					<text transform="matrix(1 0 0 1 -18.5 -9.3613)" class="st6 st4">time</text>
				</g>
				<g transform="translate(0.0,98.0)">
					<text transform="matrix(1 0 0 1 -18.5 -9.3613)" class="st6 st4">moderator_user_</text>
				</g>
				<g transform="translate(0.0,112.0)">
					<text transform="matrix(1 0 0 1 -18.5 -9.3613)" class="st6 st4">conference_id</text>
				</g>
			</g>
			<g transform="translate(112.5,3.0)">
				<g transform="translate(0.0,0.0)">
					<text transform="matrix(1 0 0 1 -18.5 -9.3613)" class="st6 st4">int</text>
				</g>
				<g transform="translate(0.0,14.0)">
					<text transform="matrix(1 0 0 1 -18.5 -9.3613)" class="st6 st4">text</text>
				</g>
				<g transform="translate(0.0,28.0)">
					<text transform="matrix(1 0 0 1 -18.5 -9.3613)" class="st6 st4">text</text>
				</g>
				<g transform="translate(0.0,42.0)">
					<text transform="matrix(1 0 0 1 -18.5 -9.3613)" class="st6 st4">int</text>
				</g>
				<g transform="translate(0.0,56.0)">
					<text transform="matrix(1 0 0 1 -18.5 -9.3613)" class="st6 st4">int</text>
				</g>
				<g transform="translate(0.0,70.0)">
					<text transform="matrix(1 0 0 1 -18.5 -9.3613)" class="st6 st4">int</text>
				</g>
				<g transform="translate(0.0,84.0)">
					<text transform="matrix(1 0 0 1 -18.5 -9.3613)" class="st6 st4">interval</text>
				</g>
				<g transform="translate(0.0,98.0)">
					<text transform="matrix(1 0 0 1 -18.5 -9.3613)" class="st6 st4">int</text>
				</g>
				<g transform="translate(0.0,112.0)">
					<text transform="matrix(1 0 0 1 -18.5 -9.3613)" class="st6 st4">int</text>
				</g>
			</g>
			<g transform="translate(162.25,3.0)">
				<g transform="translate(0.0,0.0)">
					<text transform="matrix(1 0 0 1 -18.5 -9.3613)" class="st6 st4">PK</text>
				</g>
				<g transform="translate(0.0,14.0)">
				</g>
				<g transform="translate(0.0,28.0)">
				</g>
				<g transform="translate(0.0,42.0)">
					<text transform="matrix(1 0 0 1 -18.5 -9.3613)" class="st6 st4">FK</text>
				</g>
				<g transform="translate(0.0,56.0)">
					<text transform="matrix(1 0 0 1 -18.5 -9.3613)" class="st6 st4">N FK</text>
				</g>
				<g transform="translate(0.0,70.0)">
					<text transform="matrix(1 0 0 1 -18.5 -9.3613)" class="st6 st4">FK</text>
				</g>
				<g transform="translate(0.0,84.0)">
				</g>
				<g transform="translate(0.0,98.0)">
					<text transform="matrix(1 0 0 1 -18.5 -9.3613)" class="st6 st4">N FK</text>
				</g>
				<g transform="translate(0.0,112.0)">
					<text transform="matrix(1 0 0 1 -18.5 -9.3613)" class="st6 st4">FK</text>
				</g>
			</g>
		</g>
		<polyline class="st0" points="-19.5,-0.5 -19.5,-20.5 174.5,-20.5 174.5,-0.5 -19.5,-0.5 -19.5,137.5 174.5,137.5 174.5,-0.5 		
			"/>
	</g>
	<g transform="translate(372.0,291.0)">
		<g transform="translate(0.0,0.0)">
			<rect x="-19.5" y="-20.5" class="st2" width="157" height="20"/>
		</g>
		<g transform="translate(0.0,0.0)">
			<text transform="matrix(1 0 0 1 23.9941 -6.3094)" class="st3 st4">presentation</text>
		</g>
		<g transform="translate(0.0,20.0)">
			<rect x="-19.5" y="-20.5" class="st5" width="157" height="53"/>
			<g transform="translate(4.0,3.0)">
				<g transform="translate(0.0,0.0)">
					<text transform="matrix(1 0 0 1 -18.5 -9.3613)" class="st6 st4">id</text>
				</g>
				<g transform="translate(0.0,14.0)">
					<text transform="matrix(1 0 0 1 -18.5 -9.3613)" class="st6 st4">event_id</text>
				</g>
				<g transform="translate(0.0,28.0)">
					<text transform="matrix(1 0 0 1 -18.5 -9.3613)" class="st6 st4">speaker_user_id</text>
				</g>
			</g>
			<g transform="translate(118.0,3.0)">
				<g transform="translate(0.0,0.0)">
					<text transform="matrix(1 0 0 1 -18.5 -9.3613)" class="st6 st4">int</text>
				</g>
				<g transform="translate(0.0,14.0)">
					<text transform="matrix(1 0 0 1 -18.5 -9.3613)" class="st6 st4">int</text>
				</g>
				<g transform="translate(0.0,28.0)">
					<text transform="matrix(1 0 0 1 -18.5 -9.3613)" class="st6 st4">int</text>
				</g>
			</g>
			<g transform="translate(137.75,3.0)">
				<g transform="translate(0.0,0.0)">
					<text transform="matrix(1 0 0 1 -18.5 -9.3613)" class="st6 st4">PK</text>
				</g>
				<g transform="translate(0.0,14.0)">
					<text transform="matrix(1 0 0 1 -18.5 -9.3613)" class="st6 st4">FK</text>
				</g>
				<g transform="translate(0.0,28.0)">
					<text transform="matrix(1 0 0 1 -18.5 -9.3613)" class="st6 st4">FK</text>
				</g>
			</g>
		</g>
		<polyline class="st0" points="-19.5,-0.5 -19.5,-20.5 137.5,-20.5 137.5,-0.5 -19.5,-0.5 -19.5,52.5 137.5,52.5 137.5,-0.5 		"/>
	</g>
	<g transform="translate(511.0,22.0)">
		<g transform="translate(0.0,0.0)">
			<rect x="-19.5" y="-20.5" class="st2" width="150" height="20"/>
		</g>
		<g transform="translate(0.0,0.0)">
			<text transform="matrix(1 0 0 1 41.4941 -6.3094)" class="st3 st4">news</text>
		</g>
		<g transform="translate(0.0,20.0)">
			<rect x="-19.5" y="-20.5" class="st5" width="150" height="82"/>
			<g transform="translate(4.0,3.0)">
				<g transform="translate(0.0,0.0)">
					<text transform="matrix(1 0 0 1 -18.5 -9.3613)" class="st6 st4">id</text>
				</g>
				<g transform="translate(0.0,14.0)">
					<text transform="matrix(1 0 0 1 -18.5 -9.3613)" class="st6 st4">title</text>
				</g>
				<g transform="translate(0.0,28.0)">
					<text transform="matrix(1 0 0 1 -18.5 -9.3613)" class="st6 st4">lead</text>
				</g>
				<g transform="translate(0.0,42.0)">
					<text transform="matrix(1 0 0 1 -18.5 -9.3613)" class="st6 st4">text</text>
				</g>
				<g transform="translate(0.0,56.0)">
					<text transform="matrix(1 0 0 1 -18.5 -9.3613)" class="st6 st4">publishe</text>
				</g>
			</g>
			<g transform="translate(62.0,3.0)">
				<g transform="translate(0.0,0.0)">
					<text transform="matrix(1 0 0 1 -18.5 -9.3613)" class="st6 st4">int</text>
				</g>
				<g transform="translate(0.0,14.0)">
					<text transform="matrix(1 0 0 1 -18.5 -9.3613)" class="st6 st4">text</text>
				</g>
				<g transform="translate(0.0,28.0)">
					<text transform="matrix(1 0 0 1 -18.5 -9.3613)" class="st6 st4">text</text>
				</g>
				<g transform="translate(0.0,42.0)">
					<text transform="matrix(1 0 0 1 -18.5 -9.3613)" class="st6 st4">text</text>
				</g>
				<g transform="translate(0.0,56.0)">
					<text transform="matrix(1 0 0 1 -18.5 -9.3613)" class="st6 st4">timestamp</text>
				</g>
			</g>
			<g transform="translate(130.75,3.0)">
				<g transform="translate(0.0,0.0)">
					<text transform="matrix(1 0 0 1 -18.5 -9.3613)" class="st6 st4">PK</text>
				</g>
				<g transform="translate(0.0,14.0)">
				</g>
				<g transform="translate(0.0,28.0)">
				</g>
				<g transform="translate(0.0,42.0)">
				</g>
				<g transform="translate(0.0,56.0)">
				</g>
			</g>
		</g>
		<polyline class="st0" points="-19.5,-0.5 -19.5,-20.5 130.5,-20.5 130.5,-0.5 -19.5,-0.5 -19.5,81.5 130.5,81.5 130.5,-0.5 		"/>
	</g>
	<g transform="translate(229.0,400.0)">
		<g transform="translate(0.0,0.0)">
			<rect x="-19.5" y="-20.5" class="st2" width="192" height="20"/>
		</g>
		<g transform="translate(0.0,0.0)">
			<text transform="matrix(1 0 0 1 54.8154 -6.3094)" class="st3 st4">speaker</text>
		</g>
		<g transform="translate(0.0,20.0)">
			<rect x="-19.5" y="-20.5" class="st5" width="192" height="139"/>
			<g transform="translate(4.0,3.0)">
				<g transform="translate(0.0,0.0)">
					<text transform="matrix(1 0 0 1 -18.5 -9.3613)" class="st6 st4">user_id</text>
				</g>
				<g transform="translate(0.0,14.0)">
					<text transform="matrix(1 0 0 1 -18.5 -9.3613)" class="st6 st4">conference_id</text>
				</g>
				<g transform="translate(0.0,28.0)">
					<text transform="matrix(1 0 0 1 -18.5 -9.3613)" class="st6 st4">is_moderator</text>
				</g>
				<g transform="translate(0.0,42.0)">
					<text transform="matrix(1 0 0 1 -18.5 -9.3613)" class="st6 st4">is_jury</text>
				</g>
				<g transform="translate(0.0,56.0)">
					<text transform="matrix(1 0 0 1 -18.5 -9.3613)" class="st6 st4">photo</text>
				</g>
				<g transform="translate(0.0,70.0)">
					<text transform="matrix(1 0 0 1 -18.5 -9.3613)" class="st6 st4">about</text>
				</g>
				<g transform="translate(0.0,84.0)">
					<text transform="matrix(1 0 0 1 -18.5 -9.3613)" class="st6 st4">linkedin</text>
				</g>
				<g transform="translate(0.0,98.0)">
					<text transform="matrix(1 0 0 1 -18.5 -9.3613)" class="st6 st4">by_sponsor</text>
				</g>
				<g transform="translate(0.0,112.0)">
					<text transform="matrix(1 0 0 1 -18.5 -9.3613)" class="st6 st4">sponsor_id</text>
				</g>
			</g>
			<g transform="translate(102.25,3.0)">
				<g transform="translate(0.0,0.0)">
					<text transform="matrix(1 0 0 1 -18.5 -9.3613)" class="st6 st4">int</text>
				</g>
				<g transform="translate(0.0,14.0)">
					<text transform="matrix(1 0 0 1 -18.5 -9.3613)" class="st6 st4">int</text>
				</g>
				<g transform="translate(0.0,28.0)">
					<text transform="matrix(1 0 0 1 -18.5 -9.3613)" class="st6 st4">boolean</text>
				</g>
				<g transform="translate(0.0,42.0)">
					<text transform="matrix(1 0 0 1 -18.5 -9.3613)" class="st6 st4">boolean</text>
				</g>
				<g transform="translate(0.0,56.0)">
					<text transform="matrix(1 0 0 1 -18.5 -9.3613)" class="st6 st4">bytea</text>
				</g>
				<g transform="translate(0.0,70.0)">
					<text transform="matrix(1 0 0 1 -18.5 -9.3613)" class="st6 st4">text</text>
				</g>
				<g transform="translate(0.0,84.0)">
					<text transform="matrix(1 0 0 1 -18.5 -9.3613)" class="st6 st4">text</text>
				</g>
				<g transform="translate(0.0,98.0)">
					<text transform="matrix(1 0 0 1 -18.5 -9.3613)" class="st6 st4">boolean</text>
				</g>
				<g transform="translate(0.0,112.0)">
					<text transform="matrix(1 0 0 1 -18.5 -9.3613)" class="st6 st4">int</text>
				</g>
			</g>
			<g transform="translate(154.25,3.0)">
				<g transform="translate(0.0,0.0)">
					<text transform="matrix(1 0 0 1 -18.5 -9.3613)" class="st6 st4">PK FK</text>
				</g>
				<g transform="translate(0.0,14.0)">
					<text transform="matrix(1 0 0 1 -18.5 -9.3613)" class="st6 st4">FK</text>
				</g>
				<g transform="translate(0.0,28.0)">
				</g>
				<g transform="translate(0.0,42.0)">
				</g>
				<g transform="translate(0.0,56.0)">
					<text transform="matrix(1 0 0 1 -18.5 -9.3613)" class="st6 st4">N</text>
				</g>
				<g transform="translate(0.0,70.0)">
				</g>
				<g transform="translate(0.0,84.0)">
				</g>
				<g transform="translate(0.0,98.0)">
				</g>
				<g transform="translate(0.0,112.0)">
					<text transform="matrix(1 0 0 1 -18.5 -9.3613)" class="st6 st4">N FK</text>
				</g>
			</g>
		</g>
		<polyline class="st0" points="-19.5,-0.5 -19.5,-20.5 172.5,-20.5 172.5,-0.5 -19.5,-0.5 -19.5,138.5 172.5,138.5 172.5,-0.5 		
			"/>
	</g>
	<g transform="translate(20.0,21.0)">
		<g transform="translate(0.0,0.0)">
			<rect x="-19.5" y="-20.5" class="st2" width="154" height="20"/>
		</g>
		<g transform="translate(0.0,0.0)">
			<text transform="matrix(1 0 0 1 26.4873 -6.3094)" class="st3 st4">conference</text>
		</g>
		<g transform="translate(0.0,20.0)">
			<rect x="-19.5" y="-20.5" class="st5" width="154" height="102"/>
			<g transform="translate(4.0,3.0)">
				<g transform="translate(0.0,0.0)">
					<text transform="matrix(1 0 0 1 -18.5 -9.3613)" class="st6 st4">id</text>
				</g>
				<g transform="translate(0.0,14.0)">
					<text transform="matrix(1 0 0 1 -18.5 -9.3613)" class="st6 st4">title</text>
				</g>
				<g transform="translate(0.0,28.0)">
					<text transform="matrix(1 0 0 1 -18.5 -9.3613)" class="st6 st4">starts</text>
				</g>
				<g transform="translate(0.0,42.0)">
					<text transform="matrix(1 0 0 1 -18.5 -9.3613)" class="st6 st4">ends</text>
				</g>
				<g transform="translate(0.0,56.0)">
					<text transform="matrix(1 0 0 1 -18.5 -9.3613)" class="st6 st4">description</text>
				</g>
			</g>
			<g transform="translate(103.5,3.0)">
				<g transform="translate(0.0,0.0)">
					<text transform="matrix(1 0 0 1 -18.5 -9.3613)" class="st6 st4">int</text>
				</g>
				<g transform="translate(0.0,14.0)">
					<text transform="matrix(1 0 0 1 -18.5 -9.3613)" class="st6 st4">text</text>
				</g>
				<g transform="translate(0.0,28.0)">
					<text transform="matrix(1 0 0 1 -18.5 -9.3613)" class="st6 st4">date</text>
				</g>
				<g transform="translate(0.0,42.0)">
					<text transform="matrix(1 0 0 1 -18.5 -9.3613)" class="st6 st4">date</text>
				</g>
				<g transform="translate(0.0,56.0)">
					<text transform="matrix(1 0 0 1 -18.5 -9.3613)" class="st6 st4">text</text>
				</g>
			</g>
			<g transform="translate(134.75,3.0)">
				<g transform="translate(0.0,0.0)">
					<text transform="matrix(1 0 0 1 -18.5 -9.3613)" class="st6 st4">PK</text>
				</g>
				<g transform="translate(0.0,14.0)">
				</g>
				<g transform="translate(0.0,28.0)">
				</g>
				<g transform="translate(0.0,42.0)">
				</g>
				<g transform="translate(0.0,56.0)">
				</g>
			</g>
		</g>
		<polyline class="st0" points="-19.5,-0.5 -19.5,-20.5 134.5,-20.5 134.5,-0.5 -19.5,-0.5 -19.5,101.5 134.5,101.5 134.5,-0.5 		
			"/>
	</g>
	<g transform="translate(552.0,249.0)">
		<g transform="translate(0.0,0.0)">
			<rect x="-19.5" y="-20.5" class="st2" width="186" height="20"/>
		</g>
		<g transform="translate(0.0,0.0)">
			<text transform="matrix(1 0 0 1 43.1523 -6.3094)" class="st3 st4">ticket_type</text>
		</g>
		<g transform="translate(0.0,20.0)">
			<rect x="-19.5" y="-20.5" class="st5" width="186" height="96"/>
			<g transform="translate(4.0,3.0)">
				<g transform="translate(0.0,0.0)">
					<text transform="matrix(1 0 0 1 -18.5 -9.3613)" class="st6 st4">id</text>
				</g>
				<g transform="translate(0.0,14.0)">
					<text transform="matrix(1 0 0 1 -18.5 -9.3613)" class="st6 st4">vip</text>
				</g>
				<g transform="translate(0.0,28.0)">
					<text transform="matrix(1 0 0 1 -18.5 -9.3613)" class="st6 st4">max_visitors</text>
				</g>
				<g transform="translate(0.0,42.0)">
					<text transform="matrix(1 0 0 1 -18.5 -9.3613)" class="st6 st4">discount_price</text>
				</g>
				<g transform="translate(0.0,56.0)">
					<text transform="matrix(1 0 0 1 -18.5 -9.3613)" class="st6 st4">price</text>
				</g>
				<g transform="translate(0.0,70.0)">
					<text transform="matrix(1 0 0 1 -18.5 -9.3613)" class="st6 st4">discount_ends</text>
				</g>
			</g>
			<g transform="translate(98.0,3.0)">
				<g transform="translate(0.0,0.0)">
					<text transform="matrix(1 0 0 1 -18.5 -9.3613)" class="st6 st4">int</text>
				</g>
				<g transform="translate(0.0,14.0)">
					<text transform="matrix(1 0 0 1 -18.5 -9.3613)" class="st6 st4">boolean</text>
				</g>
				<g transform="translate(0.0,28.0)">
					<text transform="matrix(1 0 0 1 -18.5 -9.3613)" class="st6 st4">int</text>
				</g>
				<g transform="translate(0.0,42.0)">
					<text transform="matrix(1 0 0 1 -18.5 -9.3613)" class="st6 st4">int</text>
				</g>
				<g transform="translate(0.0,56.0)">
					<text transform="matrix(1 0 0 1 -18.5 -9.3613)" class="st6 st4">int</text>
				</g>
				<g transform="translate(0.0,70.0)">
					<text transform="matrix(1 0 0 1 -18.5 -9.3613)" class="st6 st4">timestamp</text>
				</g>
			</g>
			<g transform="translate(166.75,3.0)">
				<g transform="translate(0.0,0.0)">
					<text transform="matrix(1 0 0 1 -18.5 -9.3613)" class="st6 st4">PK</text>
				</g>
				<g transform="translate(0.0,14.0)">
				</g>
				<g transform="translate(0.0,28.0)">
				</g>
				<g transform="translate(0.0,42.0)">
					<text transform="matrix(1 0 0 1 -18.5 -9.3613)" class="st6 st4">N</text>
				</g>
				<g transform="translate(0.0,56.0)">
				</g>
				<g transform="translate(0.0,70.0)">
					<text transform="matrix(1 0 0 1 -18.5 -9.3613)" class="st6 st4">N</text>
				</g>
			</g>
		</g>
		<polyline class="st0" points="-19.5,-0.5 -19.5,-20.5 166.5,-20.5 166.5,-0.5 -19.5,-0.5 -19.5,95.5 166.5,95.5 166.5,-0.5 		"/>
	</g>
	<g transform="translate(685.0,455.0)">
		<g transform="translate(0.0,0.0)">
			<rect x="-19.5" y="-20.5" class="st2" width="124" height="20"/>
		</g>
		<g transform="translate(0.0,0.0)">
			<text transform="matrix(1 0 0 1 -0.1758 -6.3094)" class="st3 st4">group_member</text>
		</g>
		<g transform="translate(0.0,20.0)">
			<rect x="-19.5" y="-20.5" class="st5" width="124" height="82"/>
			<g transform="translate(4.0,3.0)">
				<g transform="translate(0.0,0.0)">
					<text transform="matrix(1 0 0 1 -18.5 -9.3613)" class="st6 st4">id</text>
				</g>
				<g transform="translate(0.0,14.0)">
					<text transform="matrix(1 0 0 1 -18.5 -9.3613)" class="st6 st4">name</text>
				</g>
				<g transform="translate(0.0,28.0)">
					<text transform="matrix(1 0 0 1 -18.5 -9.3613)" class="st6 st4">lastname</text>
				</g>
				<g transform="translate(0.0,42.0)">
					<text transform="matrix(1 0 0 1 -18.5 -9.3613)" class="st6 st4">email</text>
				</g>
				<g transform="translate(0.0,56.0)">
					<text transform="matrix(1 0 0 1 -18.5 -9.3613)" class="st6 st4">user_id</text>
				</g>
			</g>
			<g transform="translate(76.75,3.0)">
				<g transform="translate(0.0,0.0)">
					<text transform="matrix(1 0 0 1 -18.5 -9.3613)" class="st6 st4">int</text>
				</g>
				<g transform="translate(0.0,14.0)">
					<text transform="matrix(1 0 0 1 -18.5 -9.3613)" class="st6 st4">text</text>
				</g>
				<g transform="translate(0.0,28.0)">
					<text transform="matrix(1 0 0 1 -18.5 -9.3613)" class="st6 st4">text</text>
				</g>
				<g transform="translate(0.0,42.0)">
					<text transform="matrix(1 0 0 1 -18.5 -9.3613)" class="st6 st4">text</text>
				</g>
				<g transform="translate(0.0,56.0)">
					<text transform="matrix(1 0 0 1 -18.5 -9.3613)" class="st6 st4">int</text>
				</g>
			</g>
			<g transform="translate(104.75,3.0)">
				<g transform="translate(0.0,0.0)">
					<text transform="matrix(1 0 0 1 -18.5 -9.3613)" class="st6 st4">PK</text>
				</g>
				<g transform="translate(0.0,14.0)">
					<text transform="matrix(1 0 0 1 -18.5 -9.3613)" class="st6 st4">N</text>
				</g>
				<g transform="translate(0.0,28.0)">
					<text transform="matrix(1 0 0 1 -18.5 -9.3613)" class="st6 st4">N</text>
				</g>
				<g transform="translate(0.0,42.0)">
				</g>
				<g transform="translate(0.0,56.0)">
					<text transform="matrix(1 0 0 1 -18.5 -9.3613)" class="st6 st4">FK</text>
				</g>
			</g>
		</g>
		<polyline class="st0" points="-19.5,-0.5 -19.5,-20.5 104.5,-20.5 104.5,-0.5 -19.5,-0.5 -19.5,81.5 104.5,81.5 104.5,-0.5 		"/>
	</g>
</g>
</svg>
